<?xml version="1.0" standalone="no"?>
<!DOCTYPE svg PUBLIC "-//W3C//DTD SVG 20010904//EN"
 "http://www.w3.org/TR/2001/REC-SVG-20010904/DTD/svg10.dtd">
<svg version="1.0" xmlns="http://www.w3.org/2000/svg"
 width="2048.000000pt" height="2048.000000pt" viewBox="0 0 2048.000000 2048.000000"
 preserveAspectRatio="xMidYMid meet">

<g transform="translate(0.000000,2048.000000) scale(0.100000,-0.100000)"
fill="#000000" stroke="none">
<path d="M2864 11849 c24 -57 104 -248 178 -424 75 -176 186 -443 248 -593 63
-150 117 -269 121 -265 13 14 199 465 199 483 0 19 -62 172 -170 420 -40 91
-99 225 -131 299 -32 74 -67 144 -79 155 -19 20 -34 21 -215 25 l-195 3 44
-103z"/>
<path d="M16840 10235 l0 -1135 85 0 85 0 0 130 0 129 78 -78 c162 -164 369
-239 580 -212 283 36 467 182 568 449 80 213 85 455 13 677 -40 127 -102 226
-193 312 -129 123 -260 173 -454 173 -221 0 -375 -67 -521 -226 l-61 -67 -2
489 -3 489 -87 3 -88 3 0 -1136z m923 257 c166 -60 286 -211 334 -417 26 -114
23 -331 -5 -438 -56 -207 -198 -357 -378 -397 -73 -17 -236 -14 -302 5 -180
52 -313 184 -378 375 -28 80 -28 423 0 523 22 80 78 171 148 238 57 56 103 82
203 116 62 21 84 23 195 19 95 -2 139 -8 183 -24z"/>
<path d="M2226 11298 c3 -13 12 -34 19 -48 7 -14 40 -88 73 -165 68 -159 153
-354 302 -695 172 -394 299 -688 359 -830 32 -74 91 -213 132 -307 l74 -173
220 0 220 0 177 413 c97 226 213 495 258 597 45 102 135 311 202 465 66 154
155 359 198 455 84 189 130 296 130 305 0 3 -114 5 -254 5 l-253 0 -48 -112
c-57 -137 -143 -340 -263 -628 -49 -118 -144 -345 -211 -504 -67 -159 -126
-306 -133 -328 -6 -21 -14 -38 -17 -38 -7 0 -20 32 -228 530 -79 190 -166 397
-192 460 -44 104 -189 456 -237 572 l-19 48 -258 0 -258 0 7 -22z"/>
<path d="M12800 10180 l0 -1080 90 0 90 0 2 508 3 507 550 0 c303 1 612 -1
688 -3 l137 -3 0 -505 0 -504 90 0 90 0 0 1080 0 1080 -90 0 -90 0 0 -490 0
-490 -690 0 -690 0 0 490 0 490 -90 0 -90 0 0 -1080z"/>
<path d="M5205 10699 c-94 -7 -210 -37 -300 -78 -210 -95 -361 -287 -425 -538
-39 -149 -23 -393 35 -536 58 -145 180 -288 311 -365 216 -128 505 -165 765
-99 143 37 315 132 398 221 l24 25 -89 93 c-49 51 -101 108 -116 126 l-27 33
-48 -37 c-60 -46 -154 -90 -236 -109 -77 -18 -216 -19 -282 -1 -123 32 -227
114 -278 215 -50 101 -110 91 573 91 l600 0 0 128 c0 175 -24 285 -90 418
-148 298 -433 442 -815 413z m275 -391 c95 -44 173 -143 195 -245 l7 -33 -391
0 c-442 0 -409 -7 -366 83 48 102 129 174 234 209 85 28 246 21 321 -14z"/>
<path d="M7179 10675 c-105 -34 -187 -90 -256 -175 l-58 -71 -9 121 -8 120
-212 -2 -211 -3 -3 -787 -2 -788 225 0 225 0 0 378 c0 207 5 406 10 442 14 86
60 178 114 228 85 79 227 132 351 133 l65 1 0 214 0 214 -77 0 c-54 -1 -101
-8 -154 -25z"/>
<path d="M8085 10694 c-188 -39 -280 -80 -360 -165 -172 -180 -173 -480 -2
-636 92 -83 199 -126 534 -214 132 -34 193 -86 193 -162 0 -153 -325 -171
-605 -33 -49 25 -102 53 -117 63 -15 9 -29 15 -31 13 -10 -13 -167 -293 -167
-299 0 -11 98 -71 164 -101 94 -43 221 -80 331 -97 133 -20 340 -12 445 17
176 50 309 152 373 287 31 65 32 73 32 188 -1 159 -20 212 -114 306 -86 86
-161 121 -416 194 -225 64 -287 91 -310 135 -59 113 58 185 262 160 114 -14
217 -42 310 -85 l73 -34 75 149 c41 83 75 154 75 158 0 12 -183 97 -250 116
-107 31 -225 46 -350 45 -69 -1 -134 -3 -145 -5z"/>
<path d="M11548 10680 c-282 -59 -446 -259 -424 -517 8 -99 38 -172 97 -237
91 -100 189 -146 464 -221 242 -66 285 -93 285 -182 0 -38 -6 -51 -33 -78 -46
-46 -100 -59 -222 -52 -150 8 -302 58 -438 144 -21 13 -40 23 -42 21 -10 -11
-165 -292 -165 -299 0 -26 157 -107 295 -152 146 -47 182 -52 365 -51 149 0
187 3 255 22 207 57 353 183 400 347 24 81 17 228 -15 310 -43 110 -172 214
-334 269 -27 9 -115 35 -195 57 -234 65 -291 99 -291 175 0 49 14 70 63 96 36
19 57 22 142 21 137 -1 257 -31 396 -97 29 -14 53 -25 55 -23 1 1 36 70 77
154 57 113 73 154 64 161 -28 22 -138 71 -213 95 -186 59 -415 73 -586 37z"/>
<path d="M9174 10656 c-3 -8 -4 -243 -1 -523 4 -474 6 -514 25 -596 73 -302
305 -486 615 -487 186 0 339 59 475 183 l42 40 0 -69 c0 -124 -19 -114 216
-114 l204 0 -2 788 -3 787 -222 3 -222 2 -3 -482 c-3 -475 -3 -484 -26 -539
-32 -80 -81 -133 -160 -171 -62 -31 -74 -33 -162 -32 -73 0 -105 5 -140 21
-95 43 -148 110 -174 223 -13 53 -16 147 -16 523 l0 457 -220 0 c-182 0 -222
-3 -226 -14z"/>
<path d="M15020 10223 c0 -605 12 -719 85 -869 62 -128 192 -226 359 -272 97
-27 270 -22 369 11 137 44 239 118 324 232 l22 30 0 -127 1 -128 90 0 90 0 0
773 c0 426 -2 776 -4 778 -2 2 -43 3 -90 1 l-86 -3 -1 -372 c0 -205 -4 -444
-8 -532 -8 -149 -10 -165 -41 -240 -42 -100 -115 -177 -211 -223 -92 -44 -154
-55 -284 -50 -98 4 -118 8 -177 35 -84 40 -147 97 -185 170 -59 112 -62 139
-69 706 l-7 517 -89 0 -88 0 0 -437z"/>
</g>
</svg>
